<?xml version="1.0" encoding="UTF-8"?>
<svg data-name="Ebene 1" viewBox="0 0 800 800" xmlns="http://www.w3.org/2000/svg">
 <defs>
  <clipPath id="d">
   <circle cx="400" cy="400" r="400" fill="none"/>
  </clipPath>
  <linearGradient id="c" x1="173.78" x2="446.78" y1="675.11" y2="402.11" gradientUnits="userSpaceOnUse">
   <stop stop-opacity="0" offset="0"/>
   <stop offset="1"/>
  </linearGradient>
 </defs>
 <circle cx="400" cy="400" r="400" fill="#1c8adb"/>
 <g clip-path="url(#d)">
  <path d="m292.03 785.89 215.93-215.93v-37.983h-155.06v-0.5034l5.9555-5.9592a111.01 111.01 0 0 0 20.847 -27.354l81.944-81.694v-32.781h-74.926c-0.7579-4.042-1.5149-8.0855-2.2281-12.209l99.527-98.098 10.407-34.341c-10.927-6.7641-29.659-13.008-56.715-13.008-29.749 0-55.355 10.63-73.195 29.33l-322.77 322.77c21.746 56.373 110.75 171.62 250.28 207.76z" fill="url(#c)" opacity=".42"/>
  <path d="m292.03 569.95v-26.016c34.862-17.691 59.317-52.031 59.317-91.056a222.26 222.26 0 0 0 -2.6019 -36.422h-53.593v-32.781h48.39c-2.6019-15.61-5.7239-35.902-5.7239-56.194 0-61.398 42.146-101.46 99.901-101.46 27.056 0 45.788 6.244 56.715 13.008l-10.407 34.341c-9.3655-5.2033-24.455-10.407-46.308-10.407-40.585 0-57.235 28.098-57.235 65.04 0 22.374 3.122 39.024 6.244 55.674h74.926v32.78h-70.764c1.5613 19.772 2.6019 39.544-2.0813 58.275-5.723 22.375-18.211 41.106-35.902 56.195v1.0412h155.06v37.983z" fill="#fff"/>
 </g>
</svg>
